# xmcd CD database file
#
# Track frame offsets:
#	150
#	14767
#	30730
#	43089
#	56759
#	70185
#	85997
#	101902
#	116659
#	131396
#	145717
#	159637
#	174957
#	189068
#	202646
#	217449
#	230025
#
# Disc length: 3239 seconds
#
# Revision: 4
# Processed by: cddbd v1.5.2PL0 Copyright (c) Steve Scherf et al.
# Submitted via: CDex 1.51
#
DISCID=f30ca511
DTITLE=Billie Holiday - Billy Holiday  [CD 09-10]
DYEAR=1900
DGENRE=Jazz
TTITLE0=Trav'lin' Light  
TTITLE1=Do Nothing Till You Hear From Me  
TTITLE2=How Am I To Know  
TTITLE3=My Old Flame  
TTITLE4=I'll Get By  
TTITLE5=I Cover The Waterfront  
TTITLE6=I'll Be Seeing You  
TTITLE7=I'm Yours  
TTITLE8=Embraceable You  
TTITLE9=As Time Goes By  
TTITLE10=He's Funny That Way  
TTITLE11=Lover Come Back To Me  
TTITLE12=Billie's Blues  
TTITLE13=On The Sunny Side Of The Street  
TTITLE14=Lover Man  
TTITLE15=No More  
TTITLE16=That Old Devil Called Love  
EXTD=Volume 9 of a 10-CD set.
EXTT0=
EXTT1=
EXTT2=
EXTT3=
EXTT4=
EXTT5=
EXTT6=
EXTT7=
EXTT8=
EXTT9=
EXTT10=
EXTT11=
EXTT12=
EXTT13=
EXTT14=
EXTT15=
EXTT16=
PLAYORDER=
